<svg width="820" height="519" viewBox="51 77 820 519" xmlns="http://www.w3.org/2000/svg" xmlns:xlink="http://www.w3.org/1999/xlink"><defs><style>@import url("https://www.dafontfree.net/embed/Y29taWMtc2Fucy1tcy1yZWd1bGFyJmRhdGEvNDAvYy8xMDA5MzQvQ09NSUMuVFRG");text {white-space: pre;};
</style></defs><rect fill="#ffffff" width="4096" height="3072"></rect><g><g transform="translate(310.890625, 309.8125)  rotate(0)  "><g><path d="M76.47687890627958 2.9765080795637857 C84.745086303612 5.308877084484534, 92.144138526507 13.421509780127966, 97.9424887803242 20.552254343631937 C103.74083903414139 27.682998907135907, 109.47028279264296 36.687470399915405, 111.26698042918271 45.7609754605876 C113.06367806572246 54.8344805212598, 112.04281487879544 66.49384073037024, 108.72267459956265 74.99328470766511 C105.40253432032986 83.49272868495999, 98.75607411263324 91.27673612863406, 91.34613875378594 96.75763932435682 C83.93620339493863 102.23854252007958, 73.56782820838677 106.701576672443, 64.2630624464788 107.87870388200167 C54.958296684570826 109.05583109156035, 44.10604767101795 107.18358618381903, 35.517544182338085 103.82040258170892 C26.929040693658227 100.4572189795988, 18.467701480388392 94.7074630659554, 12.732041514399647 87.699602269341 C6.996381548410901 80.6917414727266, 2.6779704964084132 70.64704539799025, 1.1035843864056076 61.77323780202258 C-0.47080172359719796 52.8994302060549, -0.1307341764235388 42.55374346338848, 3.2857248543828135 34.456756693534935 C6.702183885189166 26.35976992368139, 14.180542811958102 18.65883082102408, 21.60233857124372 13.19131718290133 C29.02413433052934 7.723803544778581, 38.30550952179912 2.8930204244664255, 47.81649941009652 1.6516748647984443 C57.32748929839392 0.41032930513046284, 73.3436620602167 4.715477762774664, 78.66827790102815 5.74324382489344 C83.9928937418396 6.771009887012217, 80.45145080654245 7.349629611463478, 79.76419445496519 7.818271237511105 M40.9367628418984 0.24446182453080212 C49.9078102552599 -2.4506382932730957, 63.62154539276272 1.6737369774810809, 72.35096970343182 4.085492264133819 C81.0803940141009 6.4972475507865575, 87.41952867449936 8.471260299809444, 93.31330870591296 14.714993544447232 C99.20708873732656 20.95872678908502, 104.89474200210663 32.256029627813504, 107.71364989191339 41.54789173196055 C110.53255778172016 50.83975383610759, 112.32349972579964 61.951550264460415, 110.22675604475351 70.46616616932947 C108.1300123637074 78.98078207419853, 101.6948816551618 86.99113932458658, 95.13318780563668 92.63558716117488 C88.57149395611157 98.28003499776318, 80.09178397405555 102.39788428362759, 70.85659294760286 104.33285318885922 C61.621401921150174 106.26782209409085, 48.99551097375919 106.25413139947058, 39.722041646920545 104.24540059256466 C30.4485723200819 102.23666978565875, 21.71489515930675 98.05162135288478, 15.215776986571015 92.28046834742375 C8.71665881383528 86.50931534196272, 2.875515199404809 78.32934452959665, 0.7273326105061315 69.61848255979848 C-1.4208499783925461 60.90762059000031, -0.47754738213828674 48.764030611990634, 2.3266814531789493 40.01529652863475 C5.130910288496185 31.26656244527887, 11.109605510367459 23.408827939331825, 17.552705622409547 17.126078059663193 C23.995805734451636 10.843328179994561, 37.21962209604112 4.86901264708985, 40.98528212543149 2.318797250622957 C44.75094215482186 -0.23141814584393572, 39.643419400920344 1.2390046374605403, 40.14666579875174 1.8247856808618366" stroke="none" stroke-width="0" fill="#8ed1fc" vector-effect="non-scaling-stroke" data-shape-part="fill" stroke-opacity="1" fill-opacity="1"></path><path d="M88.16681068347214 10.216394002638864 C95.73446135847381 14.780355872152692, 103.31462528073963 23.526117285540913, 107.27718981684338 31.992235196737493 C111.23975435294712 40.45835310793407, 113.21516079680067 52.051979695617824, 111.94219790009461 61.01310146981835 C110.66923500338855 69.97422324401889, 105.53955947372722 78.52291002597514, 99.63941243660699 85.75896584194068 C93.73926539948675 92.99502165790622, 84.92807127748408 100.7194403763091, 76.5413156773732 104.4294363656116 C68.15456007726233 108.13943235491409, 58.14531524587282 109.21059656214322, 49.31887883594173 108.01894177775566 C40.49244242601064 106.82728699336809, 31.23718819616153 102.57706452369106, 23.58269721778666 97.27950765928617 C15.92820623941179 91.98195079488127, 7.092861214822305 84.25450998282564, 3.3919329656925115 76.23360059132625 C-0.30899528343728244 68.21269119982686, -0.05628947672435913 58.32551170682199, 1.377127723007895 49.154051310289844 C2.8105449227401493 39.9825909137577, 6.847927696559236 28.87028687253745, 11.992436164086037 21.20483821213335 C17.136944631612838 13.53938955172925, 24.07941682144275 6.738582921291366, 32.244178528168696 3.1613593478652504 C40.408940234894644 -0.4158642255608651, 49.91461786893298 -2.7826998050448686, 60.981006404441715 -0.2585032284233435 C72.04739493995045 2.2656933481981816, 91.33196368211097 12.792167783522146, 98.64250974122112 18.3065388075944 C105.95305580033127 23.820909831666654, 105.40859909838082 31.97871655413718, 104.84428275910258 32.827722916010174 M34.12463950831726 2.729119954767583 C42.25217443168849 -1.7004920819038594, 55.15987961700805 -2.22633418420864, 64.05452834123862 -0.7353411305314381 C72.9491770654692 0.7556519231457639, 80.15920941002304 5.744156453130159, 87.49253185370068 11.675078276830796 C94.82585429737833 17.606000100531432, 104.53432245332208 26.43827060535315, 108.0544630033045 34.85018981167238 C111.57460355328693 43.262109017991605, 109.81223221055498 53.44677317436656, 108.61337515359526 62.14659351474617 C107.41451809663553 70.84641385512579, 106.10771081996855 80.2434437766049, 100.86132066154616 87.04911185395005 C95.61493050312377 93.8547799312952, 85.78976635933554 99.2009437285208, 77.13503420306091 102.98060197881708 C68.48030204678628 106.76026022911336, 57.81635699133705 110.39365560867427, 48.93292772389836 109.72706135572777 C40.049498456459666 109.06046710278127, 31.613270970232747 105.15627887116248, 23.83445859842876 98.98103646113812 C16.055646226624773 92.80579405111375, 6.379216476218616 80.99939725203679, 2.2600534930744445 72.67560689558157 C-1.8591094900697271 64.35181653912635, -2.147088142831662 57.72251989724248, -0.8805193004362692 49.038294322406806 C0.38604954195912344 40.354068747571134, 4.088148817608505 28.097121706946613, 9.8594665474468 20.570253446567513 C15.630784277285095 13.043385186188413, 29.322393313390616 6.213083976339918, 33.747387078593505 3.877084760132199 C38.1723808437964 1.541085543924479, 36.135895967353626 5.963802719326335, 36.40942913866414 6.554258149321193" stroke="#000000" stroke-width="2" fill="none" vector-effect="non-scaling-stroke" stroke-opacity="1" fill-opacity="1" data-shape-part="outline"></path></g></g><g transform="translate(327.540625, 326.0125) rotate(0)"><text transform="translate(0, 23)" style="font-size: 22px; font-family: &quot;Comic Sans MS&quot;; fill: rgb(17, 17, 17); opacity: 1; stroke-width: 0; font-style: normal; font-weight: normal; text-decoration: none;"><tspan dominant-baseline="text-before-edge" alignment-baseline="text-before-edge" x="24.649999618530273" y="0">S0</tspan></text></g></g><g><g transform="translate(634.890625, 309.8125)  rotate(0)  "><g><path d="M73.79481357250384 2.985269110196711 C82.20821935679606 5.103482686244254, 92.2100219909734 13.162987573407353, 98.05115619318977 20.150670451802206 C103.89229039540614 27.13835333019706, 107.2773988033553 36.12349535070662, 108.84161878580205 44.91136638056584 C110.40583876824881 53.699237410425056, 110.30016218178812 64.542554598668, 107.43647608787035 72.87789663095752 C104.57278999395257 81.21323866324704, 98.46858455594345 89.35175759647451, 91.65950222229543 94.92341857430299 C84.85041988864741 100.49507955213146, 75.82296130145075 104.88739853541703, 66.58198208598219 106.30786249792834 C57.34100287051364 107.72832646043965, 45.226012511837155 106.35075795289238, 36.21362692948413 103.44620234937085 C27.2012413471311 100.54164674584932, 18.51307772503436 95.58340383473809, 12.507668591864011 88.88052887679918 C6.502259458693661 82.17765391886026, 1.7822637845854377 72.34928713448048, 0.18117213046203062 63.22895260173735 C-1.4199195236613764 54.10861806899422, -0.6168197175199039 42.58153809197871, 2.901118667123569 34.15852168034042 C6.419057051767043 25.735505268702134, 14.109685648421788 18.32927731867472, 21.28880243832287 12.690854131907642 C28.46791922822395 7.052430945140565, 34.33977112071076 0.45435222760665894, 45.97581940653004 0.3279825597379613 C57.61186769234933 0.20161289186926368, 82.13477429494935 7.877632690542396, 91.10509215323859 11.932636124695456 C100.07541001152782 15.987639558848517, 100.78344753215352 24.104052043063717, 99.79772655626546 24.65800316465632 M18.406402906559904 15.519106960279174 C24.21508343594865 9.690474633085351, 33.76619590994403 5.149078052042721, 42.89364274318896 3.2326138691284214 C52.021089576433894 1.3161496862141224, 64.06067028652633 1.8338570658958808, 73.17108390602951 4.020321862793381 C82.28149752553269 6.206786659690881, 91.67211963823335 10.312041844226663, 97.55612446020805 16.35140265051342 C103.44012928218275 22.39076345680018, 106.33655975417047 30.9445426333657, 108.47511283787773 40.25648670051393 C110.613665921585 49.568430767662164, 113.31321218462502 63.634039571011, 110.38744296245162 72.22306705340283 C107.46167374027821 80.81209453579466, 98.07480922919758 86.01649551196537, 90.92049750483736 91.79065159486488 C83.76618578047713 97.56480767776439, 76.24292329150755 104.79389521524428, 67.46157261629027 106.86800355079988 C58.680221941072986 108.94211188635549, 47.20191492501896 107.16688943385117, 38.23239345353366 104.23530160819848 C29.26287198204836 101.3037137825458, 19.612169651032556 95.61624030863472, 13.644443787378464 89.27847659688379 C7.676717923724372 82.94071288513287, 4.271241016380522 74.45645263232682, 2.4260382716091087 66.20871933769293 C0.5808355268376957 57.96098604305904, -0.37074194328699894 48.84698005629193, 2.5732273187499857 39.79207682908046 C5.517196580786971 30.73717360186898, 17.352147795503218 16.202750664936836, 20.089853843831015 11.879299974424079 C22.827559892158813 7.555849283911322, 19.010589287474723 12.649752084892228, 18.999463608716766 13.85137268600392" stroke="none" stroke-width="0" fill="#8ed1fc" vector-effect="non-scaling-stroke" data-shape-part="fill" stroke-opacity="1" fill-opacity="1"></path><path d="M88.83357474128684 11.212227786235218 C96.39856988218969 15.664037682737664, 103.51571923606502 23.913450374886597, 107.14886954509227 32.52841706495653 C110.78201985411951 41.14338375502646, 112.13599960683521 54.00175968712142, 110.63247659545027 62.9020279266548 C109.12895358406533 71.80229616618819, 103.84958391269147 79.17327544637351, 98.12773147678263 85.93002650215684 C92.40587904087378 92.68677755794016, 84.53804829365949 99.68534870585063, 76.30136197999721 103.44253426135478 C68.06467566633494 107.19971981685893, 57.75571953398182 109.61564447188685, 48.707613594808976 108.47313983518174 C39.65950765563613 107.33063519847663, 29.6603253915231 102.45840153455427, 22.01272634496018 96.58750644112409 C14.365127298397258 90.71661134769391, 6.381087011467374 81.82092426003499, 2.8220193154314615 73.24776927460069 C-0.7370483806044503 64.67461428916639, -0.6379973086589021 54.06717558050587, 0.6583201687447087 45.148576528518255 C1.9546376461483195 36.22997747653064, 4.724719721773266 26.537463801127426, 10.599924179853126 19.736174962675022 C16.475128637932986 12.934886124222619, 27.056167822113224 7.720775759316897, 35.909546917223864 4.3408434978038315 C44.7629260123345 0.9609112362907659, 53.65258436232076 -2.615411471181473, 63.72019875051698 -0.543418606403371 C73.7878131387132 1.5285742583747308, 90.18668435408075 12.357175682629912, 96.31523324640119 16.772800686472443 C102.44378213872163 21.188425690314975, 101.07638383916164 25.403404243816546, 100.49149210443963 25.950331416651824 M34.70185654753085 4.378731896709169 C42.438599436133686 0.41916620540860405, 54.0617434079056 0.9623650615430949, 63.080186545621885 1.8965786362806512 C72.09862968333817 2.8307922110182075, 81.63279397334045 5.293972524550802, 88.81251537382855 9.984013345134507 C95.99223677431664 14.67405416571821, 102.42165253240904 21.711355007108324, 106.15851494855039 30.03682355978288 C109.89537736469174 38.36229211245744, 112.17665046666127 50.789725924698146, 111.2336898706766 59.93682466118184 C110.29072927469193 69.08392339766553, 106.15850314667317 77.43103409959829, 100.50075137264233 84.91941597868504 C94.84299959861148 92.40779785777178, 85.99721582339383 101.10397535388209, 77.28717922649153 104.86711593570234 C68.57714262958923 108.6302565175226, 57.21877934464767 108.40142343515981, 48.24053179122857 107.49825946960652 C39.26228423780947 106.59509550405323, 30.30173037280259 104.38074014455356, 23.41769390597692 99.44813214238263 C16.533657439151245 94.51552414021171, 10.633597803075736 86.02758917692677, 6.936312990274537 77.90261145658101 C3.239028177473339 69.77763373623526, 0.398057089854678 59.66873465585949, 1.2339850291697303 50.69826582030811 C2.0699129684847826 41.72779698475673, 6.942180948500886 31.940924048136168, 11.95188062616485 24.079798443272736 C16.961580303828814 16.218672838409304, 27.445126125970802 6.766218326489298, 31.29218309515352 3.5315121911275114 C35.139240064336235 0.2968060557657246, 34.1833987711249 3.7632025850634583, 35.03422244126114 4.671561631102016" stroke="#000000" stroke-width="2" fill="none" vector-effect="non-scaling-stroke" stroke-opacity="1" fill-opacity="1" data-shape-part="outline"></path></g></g><g transform="translate(651.540625, 326.0125) rotate(0)"><text transform="translate(0, 23)" style="font-size: 22px; font-family: &quot;Comic Sans MS&quot;; fill: rgb(17, 17, 17); opacity: 1; stroke-width: 0; font-style: normal; font-weight: normal; text-decoration: none;"><tspan dominant-baseline="text-before-edge" alignment-baseline="text-before-edge" x="26.412500381469727" y="0">S1</tspan></text></g></g><g><g transform="translate(108.890625, 201.8125)  rotate(0)  "><g><path d="M45.80150595046683 1.162542318302279 C54.43085891654046 -1.2288115043788337, 66.15540736691784 -0.7961912400712534, 74.81016682958212 2.161789393844394 C83.46492629224639 5.119770027760042, 91.82087797546366 12.140169217207685, 97.73006272645247 18.910426121796164 C103.63924747744129 25.680683026384642, 108.53698674099047 33.75938575085633, 110.26527533551499 42.78333082137527 C111.9935639300395 51.807275891894214, 111.11894861699487 64.50223426585579, 108.09979429359956 73.05409654490983 C105.08063997020425 81.60595882396386, 99.28864925505363 88.22580182469544, 92.15034939514314 94.09450449569948 C85.01204953523265 99.96320716670353, 74.22102144995574 106.62053850781365, 65.26999513413658 108.2663125709341 C56.31896881831741 109.91208663405456, 47.02400989400469 106.94679322966088, 38.44419150022813 103.96914887442223 C29.864373106451566 100.99150451918358, 19.887761505641294 97.09622319792099, 13.791084771477202 90.40044643950218 C7.694408037313109 83.70466968108336, 3.8612839339907365 72.66436626553158, 1.8641310952435717 63.79448832390936 C-0.13302174350359297 54.924610382287135, -1.1853655576467061 45.4856235294647, 1.8081677389942143 37.18117878976881 C4.801701035635135 28.876734050072912, 11.029888667785626 20.014342920123013, 19.825330875089094 13.96781988573398 C28.62077308239256 7.921296851344949, 47.25807044999837 2.7129570222369424, 54.58082098281502 0.9020405834346192 C61.90357151563167 -0.9088758553677039, 63.71465652056617 2.4046095079205165, 63.761834071988986 3.102321252920042 M28.706785026287868 5.386446550094675 C35.774256037891725 0.5310715387168647, 48.20879942688079 -2.4288611586562445, 57.27419880675194 -2.1706455628668238 C66.33959818662309 -1.9124299670774032, 75.60713769430936 2.1782522514646265, 83.09918130551476 6.935740124831199 C90.59122491672017 11.69322799819777, 97.85842602272385 18.511025316125487, 102.22646047398436 26.374281677332608 C106.59449492524487 34.237538038539725, 109.24503938181294 45.147624123983434, 109.30738801307783 54.115278292073924 C109.36973664434271 63.082932460164415, 107.27139544038984 72.59378159096005, 102.60055226157368 80.18020668587556 C97.92970908275753 87.76663178079107, 89.5590547311332 94.69794091701753, 81.28232894018089 99.63382886156703 C73.00560314922858 104.56971680611652, 62.419316415703776 109.70869855604909, 52.94019751585983 109.79553435317253 C43.46107861601588 109.88237015029597, 31.923871855431386 105.18372328195747, 24.407615541117195 100.15484364430772 C16.891359226803004 95.12596400665797, 11.562547794628404 87.81611209218696, 7.842659629974676 79.62225652727405 C4.122771465320948 71.42840096236114, 2.004797266535794 59.71722831702574, 2.088286553194827 50.991710254830295 C2.17177583985386 42.26619219263485, 3.5207845115200884 34.974677053247575, 8.343595349928876 27.269148154101362 C13.166406188337664 19.563619254955146, 27.83011748057831 7.834830601434756, 31.02515158364755 4.758536859953004 C34.22018568671679 1.6822431184712516, 27.46696218781364 7.732655751979358, 27.513799968344326 8.811385705210846" stroke="none" stroke-width="0" fill="#8ed1fc" vector-effect="non-scaling-stroke" data-shape-part="fill" stroke-opacity="1" fill-opacity="1"></path><path d="M87.57603505899178 10.501761660369283 C94.77449600724702 15.289126113990903, 100.96409216132722 25.383965650842967, 105.01712317982164 33.584640780809075 C109.07015419831606 41.78531591077518, 112.6682797733985 50.966073965904656, 111.89422116995829 59.705812440165936 C111.12016256651808 68.44555091442722, 105.88550083925445 78.68038826095075, 100.37277155918036 86.02307162637675 C94.86004227910628 93.36575499180275, 87.47911559352626 100.01970802228828, 78.81784548951376 103.76191263272192 C70.15657538550126 107.50411724315555, 57.812915815959734 109.73748257528241, 48.40515093510535 108.47629928897851 C38.99738605425096 107.2151160026746, 29.71641476542553 101.75490252397013, 22.37125620438742 96.19481291489846 C15.026097643349313 90.6347233058268, 7.857613844044929 83.18661966613546, 4.334199568876691 75.11576163454849 C0.8107852937084545 67.04490360296153, 0.055556090705849215 56.81492221423487, 1.230770553378001 47.76966472537665 C2.4059850160501526 38.72440723651843, 6.08111067368218 28.123952704163827, 11.385486344909602 20.844216701399187 C16.689862016137024 13.564480698634547, 24.863611450139672 7.757416776568409, 33.05702458074253 4.091248708788811 C41.250437711345384 0.4250806410092136, 48.70161218440729 -4.903749216342664, 60.54596512852673 -1.1527917052783963 C72.39031807264617 2.598165805785871, 95.80142907992173 18.36380975511714, 104.12314224545918 26.596993775174415 C112.44485541099662 34.83017779523169, 111.2217364988642 47.673809079998684, 110.47624412175142 48.246312415065255 M23.422664638238004 10.065549304862188 C29.779103438822215 4.8146808378641275, 40.805464683320835 -0.7524558306136484, 50.171249748072995 -1.213305615994706 C59.537034812825155 -1.6741554013757636, 71.17361720537694 3.0998724471851746, 79.61737502675095 7.300450592575842 C88.06113284812496 11.50102873796651, 95.43265134449969 16.740650586317656, 100.83379667631706 23.9901632563493 C106.23494200813444 31.239675926380947, 111.63827771094121 41.904806413895756, 112.0242470176552 50.79752661276571 C112.41021632436919 59.69024681163566, 107.66835364961315 69.41480512757963, 103.14961251660102 77.346484449569 C98.6308713835889 85.27816377155838, 92.03312221172766 93.51995217834168, 84.91180021958246 98.38760254470196 C77.79047822743726 103.25525291106224, 69.62979595015156 106.21849417457592, 60.42168056372983 106.55238664773069 C51.2135651773081 106.88627912088545, 38.213284197934755 104.01776680899044, 29.66310790105205 100.39095738363056 C21.112931604169347 96.76414795827068, 14.131883508247228 91.67122635804176, 9.120622782433607 84.79153009557143 C4.109362056619987 77.9118338331011, 0.07370346126655863 68.38835722606323, -0.4044564538296669 59.11277980880854 C-0.8826163689258923 49.837202391553845, 1.8837108087607763 37.788665040590004, 6.251663291856254 29.13806559204327 C10.61961577495173 20.487466143496533, 22.86955761609109 10.276637154780927, 25.803258444743197 7.209183117528141 C28.736959273395303 4.141729080275356, 23.559391802332797 9.778751335026024, 23.853868263768902 10.73334136852656" stroke="#000000" stroke-width="2" fill="none" vector-effect="non-scaling-stroke" stroke-opacity="1" fill-opacity="1" data-shape-part="outline"></path></g></g><g transform="translate(125.540625, 218.0125) rotate(0)"><text transform="translate(0, 23)" style="font-size: 21px; font-family: &quot;Comic Sans MS&quot;; fill: rgb(17, 17, 17); opacity: 1; stroke-width: 0; font-style: normal; font-weight: normal; text-decoration: none;"><tspan dominant-baseline="text-before-edge" alignment-baseline="text-before-edge" x="13.33750057220459" y="0">IDLE</tspan></text></g></g><g><g id="shmPnw6WFby0wYWciFXrS" pointer-events="auto"><g><path data-shape-part="outline" class="" d="M219.163 264.53 C219.0756741923392 267.22593840464947, 268.9127308358252 266.46517611846326, 285.891 276.813 M219.163 264.53 C220.26862649201604 262.7263961051777, 269.70639303278176 262.8330854092911, 285.891 276.813 M285.891 276.813 C302.02907990446687 288.1290685201585, 327.92353657236697 325.88988472518326, 328.831 324.057 M285.891 276.813 C302.4663547186777 289.9216252912357, 330.43143324064465 326.16995915711675, 328.831 324.057" stroke="#000000" stroke-width="2" stroke-opacity="1" fill="none" stroke-linecap="round" stroke-dashoffset="-3"></path></g><marker id="shmPnw6WFby0wYWciFXrS-end" markerWidth="14" markerHeight="16" markerUnits="userSpaceOnUse" refX="12" refY="0" orient="auto-start-reverse" overflow="visible"><path d="M-0.015159524977207184 8.234569825232029 L12.920033775269985 0.9503660574555397 L-0.8800405636429787 -8.438047610223293" stroke="none" fill="white" fill-opacity="1" data-shape-part="fill"></path><path d="M0.13984046180018694 8.516744681274218 C3.244392817756471 6.685340811527303, 6.670648017100185 2.427153258564495, 14.717577768077172 -0.487746936715473 M0.37400305202961603 8.49377453148703 C4.808853363854764 5.209099722774969, 10.644734574432428 1.3702196757562886, 14.67376649741292 0.23483998271686257 M15.589808541940043 -1.3709265164193865 C8.040434981703118 -2.6048103095086232, 5.238911429912504 -5.424382103369313, 1.4550430815894018 -6.780008675631679 M13.453679706175727 0.2181914930485973 C9.372272007455766 -3.0623752013241425, 5.813054461792695 -4.705753864082036, -0.753268197865875 -8.226734357192655 M-0.1403558433055878 -8.716912204027176 C-1.2630592781305314 -3.483517134189605, 0.6909436744451523 4.237249761819841, 0.1644264519214631 9.029260700941085 M-0.19383427202701564 -7.774145016074181 C-0.1441626346111298 -3.3139283686876295, -0.3254594600200653 2.350307443737984, 0.2924510329961776 8.10381375849247" stroke="#000000" stroke-width="2" stroke-opacity="1" fill="none" data-shape-part="outline"></path></marker><path d="M219.163,264.53C219.163,264.53,267.27,266.205,285.891,276.813C303.411,286.794,328.831,324.057,328.831,324.057" fill="none" fill-opacity="0" stroke="black" stroke-opacity="0" stroke-width="10" marker-end="url(#shmPnw6WFby0wYWciFXrS-end)" id="hit-shmPnw6WFby0wYWciFXrS"></path></g></g><g><g id="CUy8qGxmKGT40w1VVGiIv" pointer-events="auto"><g><path data-shape-part="outline" class="" d="M396.387 318.379 C397.61597404432297 320.1850935139656, 435.8720126338005 285.72584618425367, 454.891 278.813 M396.387 318.379 C398.02593412649634 315.9682201036215, 431.6756219125986 286.2493430474996, 454.891 278.813 M454.891 278.813 C492.80934422254563 262.21896649980545, 542.2189121088982 260.59540862321853, 579.891 276.813 M454.891 278.813 C492.5530990892649 265.9101379045248, 546.0537893167734 259.55310996949675, 579.891 276.813 M579.891 276.813 C604.0242065882683 283.6822222981453, 652.1565537714959 329.29610387468335, 650.34 326.429 M579.891 276.813 C607.7768050676584 287.16342093980313, 648.9961852365733 326.0465546258688, 650.34 326.429" stroke="#000000" stroke-width="2" stroke-opacity="1" fill="none" stroke-linecap="round" stroke-dashoffset="-3"></path></g><marker id="CUy8qGxmKGT40w1VVGiIv-end" markerWidth="14" markerHeight="16" markerUnits="userSpaceOnUse" refX="12" refY="0" orient="auto-start-reverse" overflow="visible"><path d="M-0.8640068769454956 9.524042963981628 L13.077914357185364 -1.996064305305481 L-0.020081400871276855 -9.34930145740509" stroke="none" fill="white" fill-opacity="1" data-shape-part="fill"></path><path d="M-0.8869310257923388 8.766000542625845 C3.5986150226872837 4.127159855516639, 8.97230610737422 2.8943975405665334, 13.228692669599234 -0.2698641326908444 M0.7788349708000895 7.2225436253286315 C2.7215050057792984 5.3829902629656585, 6.742841502132887 5.097406326365609, 14.52972657161193 0.17466377574400915 M14.69059198793009 -0.25748829148175556 C9.913411095629542 -0.6104450769450782, 5.271344852622643 -3.7907424250254005, -1.0338726115994556 -8.689372549302007 M13.646625417343113 0.3804644194685063 C8.410468087507539 -2.378243962608041, 3.832067905873851 -5.0242217998618, -0.6484925704354967 -7.25048239825326 M1.0348776817321776 -8.619425106048585 C0.43702298164367676 -5.138090324401856, -0.7149026775360108 1.0144358634948731, -1.4927742958068848 7.891967105865478 M0.7189053058624268 -8.121980714797974 C-0.0014359474182129295 -1.6122235774993892, 0.788857936859131 3.8080316066741955, 0.5007244586944581 7.270345640182495" stroke="#000000" stroke-width="2" stroke-opacity="1" fill="none" data-shape-part="outline"></path></marker><path d="M396.387,318.379C396.387,318.379,433.932,287.376,454.891,278.813C491.99,263.654,542.721,262.88,579.891,276.813C605.51,286.416,650.34,326.429,650.34,326.429" fill="none" fill-opacity="0" stroke="black" stroke-opacity="0" stroke-width="10" marker-end="url(#CUy8qGxmKGT40w1VVGiIv-end)" id="hit-CUy8qGxmKGT40w1VVGiIv"></path></g></g><g><g id="hbvczjJxHDzGkqHX_i2HM" pointer-events="auto"><g><path data-shape-part="outline" class="" d="M690.7 417.812 C689.8414743224159 417.9190173373446, 623.9648909605518 459.01155679585787, 587.891 467.813 M690.7 417.812 C689.6961567822378 419.9960354014654, 624.6038641349356 461.6856574793477, 587.891 467.813 M587.891 467.813 C554.0693787747398 471.26683546497674, 514.3137298916355 470.5365991361365, 484.891 460.813 M587.891 467.813 C554.4267355101983 475.43381278693863, 513.8760383142512 471.42646722108316, 484.891 460.813 M484.891 460.813 C451.91285122022776 453.5492516150698, 394.5817110346332 413.40135278012605, 393.282 411.05 M484.891 460.813 C452.44955688342264 452.56831969511694, 394.81700299039295 408.07934925896114, 393.282 411.05" stroke="#000000" stroke-width="2" stroke-opacity="1" fill="none" stroke-linecap="round" stroke-dashoffset="-3"></path></g><marker id="hbvczjJxHDzGkqHX_i2HM-end" markerWidth="14" markerHeight="16" markerUnits="userSpaceOnUse" refX="12" refY="0" orient="auto-start-reverse" overflow="visible"><path d="M-1.5258604381233454 9.1907913479954 L14.689159085974097 -1.601760944351554 L1.3974552061408758 -7.439744373783469" stroke="none" fill="white" fill-opacity="1" data-shape-part="fill"></path><path d="M-1.209039393463506 7.5308265066388325 C4.8172693714951835 6.057697879966391, 7.794330821389038 3.0772908862320363, 12.677163810511402 -1.5443362796077655 M-0.7737341016013812 8.296426367583772 C4.295913540991265 6.014131406253034, 9.119742027214048 3.5607661446235497, 14.040324581750625 0.27886524516388134 M12.64767392472276 0.3565567160102803 C9.287382355145985 -3.918411682881332, 3.2986290544176144 -5.806429101316628, -0.21827116941023106 -8.409193124719177 M13.234773304106449 -0.21773787299763026 C9.072189989312479 -3.2238611481628903, 5.381189715159373 -4.43916621620397, -0.6839545184172435 -8.223079236201812 M-1.3756451770663263 -8.568342168629169 C-0.9659440554678441 -3.4058618217706673, -0.06589928045868873 0.44748003631830313, 1.1312762573361397 7.836217872798443 M-0.27042918577790265 -7.487226685136557 C0.038995051681995366 -1.7371843822300435, 0.7478658679127694 4.638923747092486, -0.0780696667730808 7.499115196615458" stroke="#000000" stroke-width="2" stroke-opacity="1" fill="none" data-shape-part="outline"></path></marker><path d="M690.7,417.812C690.7,417.812,624.131,461.261,587.891,467.813C555.164,473.728,517.187,470.158,484.891,460.813C452.277,451.375,393.282,411.05,393.282,411.05" fill="none" fill-opacity="0" stroke="black" stroke-opacity="0" stroke-width="10" marker-end="url(#hbvczjJxHDzGkqHX_i2HM-end)" id="hit-hbvczjJxHDzGkqHX_i2HM"></path></g></g><g><g id="dSBan5Oo4I3Iw5vGrLaFG" pointer-events="auto"><g><path data-shape-part="outline" class="" d="M726.509 322.812 C726.8229559850097 321.781352401793, 793.8567869500517 295.0028659496903, 803.891 309.813 M726.509 322.812 C727.1705461278707 323.1051384455413, 790.4329047222882 294.6838495761603, 803.891 309.813 M803.891 309.813 C811.7016876820921 318.6451022720933, 815.0657762154937 344.32069809538126, 809.891 354.813 M803.891 309.813 C807.7988764711171 318.54513729541003, 816.956386737898 344.4812250739783, 809.891 354.813 M809.891 354.813 C803.9899965276122 367.7953843689561, 746.3568738793731 373.4700312176347, 745.374 371.165 M809.891 354.813 C805.3991924100667 369.3898263308257, 743.6648152867109 370.40970481984317, 745.374 371.165" stroke="#000000" stroke-width="2" stroke-opacity="1" fill="none" stroke-linecap="round" stroke-dashoffset="-3"></path></g><marker id="dSBan5Oo4I3Iw5vGrLaFG-end" markerWidth="14" markerHeight="16" markerUnits="userSpaceOnUse" refX="12" refY="0" orient="auto-start-reverse" overflow="visible"><path d="M-0.1708425134420395 9.26103363931179 L13.3548032194376 -0.29379452764987946 L-1.7556441873311996 -6.700566664338112" stroke="none" fill="white" fill-opacity="1" data-shape-part="fill"></path><path d="M0.013902530220537335 8.309191617117813 C4.511002972660425 4.593288131320607, 8.583497679873183 3.53506068978901, 14.133888448220198 0.2234730009948107 M0.5389763579185827 8.022019328485959 C4.524072907197727 4.9933566864374415, 8.667837316707104 3.8487675940586303, 14.580994899183231 -0.1650247575636239 M15.205078399910542 -0.4626634419038105 C9.738054941777442 -2.0987132588712845, 6.975402826622506 -4.6353325335264834, -1.1014001909584419 -7.9361223749899015 M13.914973811510267 -0.609950703914477 C9.789636500076341 -2.075288266490195, 4.732065499400532 -5.772589219268609, 0.4117307050347152 -8.424938374847686 M0.47598007917404184 -7.96559818983078 C-0.15490087866783137 -4.978519606590271, 1.5621862947940828 1.7313250899314894, -0.7129927754402161 7.125736725330353 M-0.4748364865779877 -7.232043606042862 C-0.31309006929397587 -3.2545679748058314, 0.5749331164360045 1.7500988185405741, -0.6562747418880464 7.361934322118759" stroke="#000000" stroke-width="2" stroke-opacity="1" fill="none" data-shape-part="outline"></path></marker><path d="M726.509,322.812C726.509,322.812,792.247,294.977,803.891,309.813C810.627,318.396,814.65,344.387,809.891,354.813C802.913,370.096,745.374,371.165,745.374,371.165" fill="none" fill-opacity="0" stroke="black" stroke-opacity="0" stroke-width="10" marker-end="url(#dSBan5Oo4I3Iw5vGrLaFG-end)" id="hit-dSBan5Oo4I3Iw5vGrLaFG"></path></g></g><g><g id="GzuD0HSe9mJaln3ua0zfr" pointer-events="auto"><g><path data-shape-part="outline" class="" d="M81.891 171.813 C97.89938527448182 186.04394251618163, 108.35582450762674 198.11006274904238, 128.397 214.709 M81.891 171.813 C94.89538015930397 182.5825839061464, 107.41629098292947 194.87485525033873, 128.397 214.709" stroke="#000000" stroke-width="2" stroke-opacity="1" fill="none" stroke-linecap="round" stroke-dashoffset="-3"></path></g><marker id="GzuD0HSe9mJaln3ua0zfr-end" markerWidth="14" markerHeight="16" markerUnits="userSpaceOnUse" refX="12" refY="0" orient="auto-start-reverse" overflow="visible"><path d="M-1.548407519236207 8.8206389490515 L15.062709664925933 -1.941764360293746 L1.0925642605870962 -8.83057720027864" stroke="none" fill="white" fill-opacity="1" data-shape-part="fill"></path><path d="M1.3248180445640623 8.46336964774953 C3.684832605489297 5.640657506684405, 7.965237715969568 4.474016472269847, 12.831593932123596 0.20100153539900645 M0.3356277667251206 8.787208157196387 C3.4396459636294194 5.479256677775494, 6.9095172001219245 4.042144361298962, 14.389685357126627 -0.3579044707179439 M13.722526481188334 -0.9016550843705239 C10.323753833925442 -2.748555990236548, 6.766715157965194 -5.0112452493759605, -1.5475853097491734 -6.6101911679934116 M13.962847430060325 -0.3455803364746425 C9.340273255225078 -1.996568959420546, 6.009748413444093 -3.748780990892728, -0.3162439212012926 -8.331499679120805 M-0.15882077664136895 -7.237709255516529 C-0.3861950351297855 -4.212987795472145, -0.8293772651255131 3.2316357031464586, 1.5414665177464486 6.530278138816357 M-0.7371422626078129 -8.194158341735601 C0.4675985696911812 -3.7041556902229775, -0.663535153567791 -0.8040723197162146, 0.12680520042777066 7.413829848915339" stroke="#000000" stroke-width="2" stroke-opacity="1" fill="none" data-shape-part="outline"></path></marker><path d="M81.891,171.813L128.397,214.709" fill="none" fill-opacity="0" stroke="black" stroke-opacity="0" stroke-width="10" marker-end="url(#GzuD0HSe9mJaln3ua0zfr-end)" id="hit-GzuD0HSe9mJaln3ua0zfr"></path></g></g><g><g id="V7eB6jALK_Ht3OJsuWpxf" pointer-events="auto"><g><path data-shape-part="outline" class="" d="M350.335 415.503 C348.84526448700575 414.4800522555336, 296.0694268641248 446.23415816988796, 277.891 438.813 M350.335 415.503 C346.9298714609723 418.34329259649104, 295.54392521965315 450.1442778783757, 277.891 438.813 M277.891 438.813 C266.4031887604967 434.1336579350457, 245.26318258903174 396.0607551518902, 251.891 386.813 M277.891 438.813 C264.79242742663433 430.27331106701683, 244.45951596772483 398.56927804598394, 251.891 386.813 M251.891 386.813 C255.66105016777664 373.0156487463936, 311.0886371664777 368.0766630469784, 311.092 368.404 M251.891 386.813 C253.35663179927877 376.73658298602885, 310.10531859934144 371.0061088105161, 311.092 368.404" stroke="#000000" stroke-width="2" stroke-opacity="1" fill="none" stroke-linecap="round" stroke-dashoffset="-3"></path></g><marker id="V7eB6jALK_Ht3OJsuWpxf-end" markerWidth="14" markerHeight="16" markerUnits="userSpaceOnUse" refX="12" refY="0" orient="auto-start-reverse" overflow="visible"><path d="M0.7171103563159704 7.634009728208184 L15.283590337261558 0.18916995264589787 L-0.5772158298641443 -6.7853233721107244" stroke="none" fill="white" fill-opacity="1" data-shape-part="fill"></path><path d="M-1.1157314586042024 6.408520350856339 C4.859556873991071 6.2941308264013, 7.894158564679115 4.694993456579053, 15.38491202676912 -1.1528047193509572 M-0.6890271952157948 8.006374569205589 C2.775204891734902 5.967523021748713, 6.087802756937487 4.48745314761517, 13.22546983458032 0.5684669863040708 M13.400156099220302 1.3399942522657926 C11.121141769879713 -1.819795065825291, 7.168921160854668 -5.097410568136075, 0.8741783463430179 -8.394098270791977 M14.21563650863571 0.6151553009026782 C8.829210006381771 -2.2141296920259856, 5.255048969043177 -5.534251271769807, -0.2907350212645079 -7.291923220946996 M0.9258182600140574 -9.026770861446858 C1.6096198116242886 -2.513164916634559, 1.6234547172486784 2.182196094095708, -0.5297961637377739 8.609380213916301 M0.6306089244782924 -7.876606508344412 C-0.5926947018504143 -2.2128864891827105, 0.43565434008836756 3.0160228915512564, 0.03960624560713766 7.8330817021429535" stroke="#000000" stroke-width="2" stroke-opacity="1" fill="none" data-shape-part="outline"></path></marker><path d="M350.335,415.503C350.335,415.503,294.78,448.31,277.891,438.813C264.988,431.557,247.408,398.542,251.891,386.813C256.671,374.304,311.092,368.404,311.092,368.404" fill="none" fill-opacity="0" stroke="black" stroke-opacity="0" stroke-width="10" marker-end="url(#V7eB6jALK_Ht3OJsuWpxf-end)" id="hit-V7eB6jALK_Ht3OJsuWpxf"></path></g></g><g transform="translate(60.890625, 135.8125) rotate(0)"><text transform="translate(0, 0)" style="font-size: 21px; font-family: &quot;Comic Sans MS&quot;; fill: rgb(17, 17, 17); opacity: 1; stroke-width: 0; font-style: normal; font-weight: normal; text-decoration: none;"><tspan dominant-baseline="text-before-edge" alignment-baseline="text-before-edge" x="0" y="0">RST = 1</tspan></text></g><g transform="translate(272.890625, 239.3125) rotate(0)"><text transform="translate(0, 0)" style="font-size: 22px; font-family: &quot;Comic Sans MS&quot;; fill: rgb(17, 17, 17); opacity: 1; stroke-width: 0; font-style: normal; font-weight: normal; text-decoration: none;"><tspan dominant-baseline="text-before-edge" alignment-baseline="text-before-edge" x="0" y="0">RST = 0</tspan></text></g><g transform="translate(526.890625, 228.8125) rotate(0)"><text transform="translate(0, 0)" style="font-size: 24px; font-family: &quot;Comic Sans MS&quot;; fill: rgb(17, 17, 17); opacity: 1; stroke-width: 0; font-style: normal; font-weight: normal; text-decoration: none;"><tspan dominant-baseline="text-before-edge" alignment-baseline="text-before-edge" x="0" y="0">1/0</tspan></text></g><g transform="translate(819.890625, 298.8125) rotate(0)"><text transform="translate(0, 0)" style="font-size: 24px; font-family: &quot;Comic Sans MS&quot;; fill: rgb(17, 17, 17); opacity: 1; stroke-width: 0; font-style: normal; font-weight: normal; text-decoration: none;"><tspan dominant-baseline="text-before-edge" alignment-baseline="text-before-edge" x="0" y="0">0/0</tspan></text></g><g transform="translate(516.890625, 475.8125) rotate(0)"><text transform="translate(0, 0)" style="font-size: 24px; font-family: &quot;Comic Sans MS&quot;; fill: rgb(17, 17, 17); opacity: 1; stroke-width: 0; font-style: normal; font-weight: normal; text-decoration: none;"><tspan dominant-baseline="text-before-edge" alignment-baseline="text-before-edge" x="0" y="0">1/1</tspan></text></g><g transform="translate(219.890625, 417.8125) rotate(0)"><text transform="translate(0, 0)" style="font-size: 24px; font-family: &quot;Comic Sans MS&quot;; fill: rgb(17, 17, 17); opacity: 1; stroke-width: 0; font-style: normal; font-weight: normal; text-decoration: none;"><tspan dominant-baseline="text-before-edge" alignment-baseline="text-before-edge" x="0" y="0">0/0</tspan></text></g><g transform="translate(395.71875, 86.8125) rotate(0)"><text transform="translate(0, 0)" style="font-size: 29px; font-family: &quot;Comic Sans MS&quot;; fill: rgb(17, 17, 17); opacity: 1; stroke-width: 0; font-style: normal; font-weight: normal; text-decoration: none;"><tspan dominant-baseline="text-before-edge" alignment-baseline="text-before-edge" x="0" y="0">Working with a FSM</tspan></text></g><g transform="translate(316.75, 544.8125) rotate(0)"><text transform="translate(0, 0)" style="font-size: 29px; font-family: &quot;Comic Sans MS&quot;; fill: rgb(17, 17, 17); opacity: 1; stroke-width: 0; font-style: normal; font-weight: normal; text-decoration: none;"><tspan dominant-baseline="text-before-edge" alignment-baseline="text-before-edge" x="0" y="0">SistemVerilog Assertions (SVA)</tspan></text></g></svg>